Coordinates
version=1
nRows=16
nColumns=22
inDegrees=yes

Units are S.I. units (second, meters, Newtons, ...)
If the header above contains a line with 'inDegrees', this indicates whether rotational values are in degrees (yes) or radians (no).

endheader
time	pelvis_tilt	pelvis_list	pelvis_rotation	pelvis_tx	pelvis_ty	pelvis_tz	hip_flexion_r	hip_adduction_r	hip_rotation_r	knee_angle_r	ankle_angle_r	subtalar_angle_r	hip_flexion_l	hip_adduction_l	hip_rotation_l	knee_angle_l	ankle_angle_l	subtalar_angle_l	lumbar_extension	lumbar_bending	lumbar_rotation
      3.91000000	     -1.68511825	      3.12126031	      2.47556475	      0.22241552	      0.98241148	     -0.61827855	     29.61334863	     -3.52807861	    -26.20985737	    -13.10019687	      8.75716367	      7.83619730	    -11.75945067	      3.72014253	    -13.13396224	     -6.92012059	     17.60524604	      7.27066526	     -5.51091957	     -4.04801488	     -6.70166427
      3.92000000	     -1.66744777	      3.13494188	      2.40334614	      0.23141021	      0.98111595	     -0.61739728	     29.42378338	     -3.55997898	    -26.90122058	    -12.05194533	      8.84959212	      7.35820721	    -12.20056450	      3.61879911	    -13.19962050	     -7.21025237	     17.69468029	      7.82889931	     -5.49285338	     -3.95331652	     -6.78832214
      3.93000000	     -1.66723830	      3.14924418	      2.37427285	      0.24060753	      0.97987123	     -0.61649748	     29.24540093	     -3.64454908	    -27.60867959	    -11.24518889	      8.92784043	      6.87292414	    -12.62364642	      3.49619474	    -13.17240758	     -7.52324836	     17.71997351	      8.40071615	     -5.44215924	     -3.85229477	     -6.90869912
      3.94000000	     -1.66860007	      3.16877588	      2.37379622	      0.25003261	      0.97870893	     -0.61555612	     29.06601770	     -3.77951212	    -28.32769450	    -10.69860472	      8.96621454	      6.35128663	    -13.05375046	      3.35994627	    -13.08493082	     -7.84211988	     17.65930335	      9.04159741	     -5.37262080	     -3.74863079	     -7.06141675
      3.95000000	     -1.66998112	      3.18537691	      2.40986085	      0.25970299	      0.97764550	     -0.61457361	     28.88639061	     -3.96286288	    -29.10033817	    -10.42836371	      8.94576446	      5.82521913	    -13.49257539	      3.20028712	    -12.91335459	     -8.16505966	     17.52477389	      9.72096105	     -5.28366810	     -3.63463079	     -7.26205766
      3.96000000	     -1.70350103	      3.19818837	      2.50402351	      0.26962198	      0.97664993	     -0.61359398	     28.73880344	     -4.20677437	    -29.96340022	    -10.43613755	      8.90575282	      5.41440955	    -13.90502925	      3.01763375	    -12.59452655	     -8.48930680	     17.26423999	     10.28303456	     -5.13534049	     -3.50611143	     -7.53362238
      3.97000000	     -1.66897455	      3.15884013	      2.55523576	      0.27979892	      0.97586269	     -0.61238361	     28.52890697	     -4.39972158	    -30.86659037	    -10.69991165	      8.66343587	      4.74213764	    -14.37675398	      2.76000886	    -12.37944633	     -8.85600800	     16.98435028	     11.18835660	     -5.04577674	     -3.32122104	     -7.75381781
      3.98000000	     -1.66064779	      3.09098941	      2.65624983	      0.29022251	      0.97518337	     -0.61115113	     28.34601727	     -4.62486624	    -31.92162203	    -11.20993969	      8.34106239	      4.14072486	    -14.81599765	      2.45564699	    -12.03046418	     -9.23961932	     16.60190627	     11.95313702	     -4.90463019	     -3.09415072	     -8.04337764
      3.99000000	     -1.64242243	      2.96713998	      2.76274073	      0.30089078	      0.97467669	     -0.60978878	     28.14743500	     -4.82117233	    -33.10510657	    -11.91086952	      7.87259220	      3.42292484	    -15.24023712	      2.07493720	    -11.65162172	     -9.67914843	     16.13245606	     12.74011490	     -4.75414578	     -2.80017254	     -8.32558505
      4.00000000	     -1.61773914	      2.78074620	      2.86693934	      0.31178129	      0.97435073	     -0.60825414	     27.93537262	     -4.97185889	    -34.40978593	    -12.75791113	      7.26445159	      2.53905324	    -15.63900718	      1.61308522	    -11.25240809	    -10.18139280	     15.58880399	     13.53442266	     -4.59408055	     -2.43945081	     -8.59842835
      4.01000000	     -1.59094951	      2.52998414	      2.95367726	      0.32286888	      0.97420782	     -0.60654549	     27.71413577	     -5.06198294	    -35.76939499	    -13.70594082	      6.56025333	      1.46225366	    -15.99915029	      1.07579748	    -10.85641721	    -10.75710125	     14.97515688	     14.32112912	     -4.42295005	     -2.00293809	     -8.85555948
      4.02000000	     -1.57080371	      2.21945760	      3.00270375	      0.33410062	      0.97425198	     -0.60460833	     27.49640295	     -5.07217046	    -37.07584165	    -14.71301387	      5.83481109	      0.20868834	    -16.29882002	      0.47276013	    -10.49581553	    -11.42160562	     14.28770962	     15.08869143	     -4.23888312	     -1.50343096	     -9.07787288
      4.03000000	     -1.57742088	      1.86212352	      2.98433096	      0.34541390	      0.97446798	     -0.60238439	     27.30651801	     -4.97808988	    -38.16617455	    -15.73023210	      5.16725024	     -1.15732073	    -16.50517464	     -0.17252286	    -10.18604440	    -12.19334221	     13.49810660	     15.83710407	     -4.02764264	     -0.96208871	     -9.22147690
      4.04000000	     -1.62030723	      1.47622421	      2.87891210	      0.35673380	      0.97483927	     -0.59984240	     27.17092696	     -4.77579316	    -38.91010795	    -16.74976710	      4.62180281	     -2.53628676	    -16.59961212	     -0.83561681	     -9.96373019	    -13.08168918	     12.61296935	     16.55183175	     -3.78812875	     -0.40114361	     -9.29672814
      4.05000000	     -1.72157952	      1.07910459	      2.66450707	      0.36800228	      0.97533166	     -0.59696295	     27.12186868	     -4.46131296	    -39.22402522	    -17.75490038	      4.19812146	     -3.83170213	    -16.55395437	     -1.49143294	     -9.84201766	    -14.09607621	     11.62722782	     17.22650156	     -3.50051845	      0.15954951	     -9.28980657
      4.06000000	     -1.86650670	      0.71376773	      2.30035005	      0.37917425	      0.97595502	     -0.59367710	     27.14787328	     -4.04131487	    -39.02988932	    -18.72352925	      3.94320379	     -5.04887481	    -16.39362301	     -2.08569337	     -9.83279819	    -15.22082896	     10.47607404	     17.90576650	     -3.18791888	      0.66604251	     -9.16031802
